<svg width="1280" height="640" viewBox="0 0 1280 640" fill="none" xmlns="http://www.w3.org/2000/svg">
  <rect width="1280" height="640" fill="#F4EFE6" />
  <circle cx="1190" cy="92" r="214" fill="#9FD8C9" fill-opacity="0.2" />
  <circle cx="120" cy="82" r="176" fill="#DE5B2F" fill-opacity="0.18" />
  <rect x="54" y="54" width="1172" height="532" rx="34" fill="#FFFAF2" stroke="#201B16" stroke-opacity="0.12" />
  <rect x="100" y="96" width="88" height="88" rx="24" fill="url(#paint0_linear_1_2)" />
  <path d="M136.434 158L130.548 158L130.548 122.673L136.434 122.673L136.434 137.874L149.602 122.673L156.65 122.673L142.686 138.485L157.261 158L149.991 158L138.742 142.744L136.434 145.384L136.434 158Z" fill="white"/>
  <text x="212" y="148" fill="#DE5B2F" font-family="'IBM Plex Mono', monospace" font-size="26" letter-spacing="2.2">LOCAL-FIRST DESKTOP AGENT</text>
  <text x="100" y="262" fill="#151515" font-family="'Space Grotesk', sans-serif" font-size="80" font-weight="700">
    <tspan x="100" dy="0">One executable.</tspan>
    <tspan x="100" dy="84">One task log.</tspan>
    <tspan x="100" dy="84">One approval model.</tspan>
  </text>
  <text x="100" y="500" fill="#4B463F" font-family="'Space Grotesk', sans-serif" font-size="30">
    <tspan x="100" dy="0">Built for serious local tasks, multi-step operations,</tspan>
    <tspan x="100" dy="38">guarded shell work, and reviewable machine actions.</tspan>
  </text>
  <rect x="904" y="300" width="276" height="232" rx="24" fill="#13212A" />
  <text x="944" y="336" fill="#F8B198" font-family="'IBM Plex Mono', monospace" font-size="18" letter-spacing="1.8" dominant-baseline="hanging">SHIPPED NOW</text>
  <text x="944" y="382" fill="white" font-family="'Space Grotesk', sans-serif" font-size="27" font-weight="700" dominant-baseline="hanging">Desktop shell</text>
  <text x="944" y="424" fill="white" font-family="'Space Grotesk', sans-serif" font-size="27" font-weight="700" dominant-baseline="hanging">Operations layer</text>
  <text x="944" y="466" fill="white" font-family="'Space Grotesk', sans-serif" font-size="27" font-weight="700" dominant-baseline="hanging">Guarded terminal</text>
  <defs>
    <linearGradient id="paint0_linear_1_2" x1="100" y1="96" x2="188" y2="184" gradientUnits="userSpaceOnUse">
      <stop stop-color="#DE5B2F"/>
      <stop offset="1" stop-color="#FF8E66"/>
    </linearGradient>
  </defs>
</svg>
