<svg width="1280" height="640" viewBox="0 0 1280 640" fill="none" xmlns="http://www.w3.org/2000/svg">
  <rect width="1280" height="640" fill="#F4EFE6" />
  <circle cx="1190" cy="92" r="214" fill="#9FD8C9" fill-opacity="0.2" />
  <circle cx="120" cy="82" r="176" fill="#DE5B2F" fill-opacity="0.18" />
  <rect x="54" y="54" width="1172" height="532" rx="34" fill="#FFFAF2" stroke="#201B16" stroke-opacity="0.12" />
  <rect x="96" y="96" width="88" height="88" rx="24" fill="url(#paint0_linear_1_2)" />
  <path d="M132.434 158L126.548 158L126.548 122.673L132.434 122.673L132.434 137.874L145.602 122.673L152.65 122.673L138.686 138.485L153.261 158L145.991 158L134.742 142.744L132.434 145.384L132.434 158Z" fill="white"/>
  <text x="217" y="122" fill="#DE5B2F" font-family="'IBM Plex Mono', monospace" font-size="26" letter-spacing="2.2">OPENCLAW-DERIVED DESKTOP AGENT</text>
  <text x="94" y="296" fill="#151515" font-family="'Space Grotesk', sans-serif" font-size="92" font-weight="700">
    <tspan x="94" dy="0">One executable.</tspan>
    <tspan x="94" dy="96">One task log.</tspan>
    <tspan x="94" dy="96">One approval model.</tspan>
  </text>
  <text x="96" y="506" fill="#4B463F" font-family="'Space Grotesk', sans-serif" font-size="34">
    <tspan x="96" dy="0">Klava is built for serious local tasks, guarded system workflows,</tspan>
    <tspan x="96" dy="46">and typed computer operations that can grow into repair and migration work.</tspan>
  </text>
  <rect x="922" y="386" width="238" height="112" rx="24" fill="#13212A" />
  <text x="956" y="430" fill="#F8B198" font-family="'IBM Plex Mono', monospace" font-size="18" letter-spacing="1.8">SHIPPED NOW</text>
  <text x="956" y="468" fill="white" font-family="'Space Grotesk', sans-serif" font-size="26" font-weight="700">Desktop shell</text>
  <text x="956" y="500" fill="white" font-family="'Space Grotesk', sans-serif" font-size="26" font-weight="700">Guarded terminal</text>
  <text x="956" y="532" fill="white" font-family="'Space Grotesk', sans-serif" font-size="26" font-weight="700">Win + macOS</text>
  <defs>
    <linearGradient id="paint0_linear_1_2" x1="96" y1="96" x2="184" y2="184" gradientUnits="userSpaceOnUse">
      <stop stop-color="#DE5B2F"/>
      <stop offset="1" stop-color="#FF8E66"/>
    </linearGradient>
  </defs>
</svg>
